<?xml version="1.0" encoding="UTF-8" standalone="no"?>
<!DOCTYPE svg PUBLIC "-//W3C//DTD SVG 1.1//EN" "http://www.w3.org/Graphics/SVG/1.1/DTD/svg11.dtd">
<svg width="100%" height="100%" viewBox="0 0 62 68" version="1.1" xmlns="http://www.w3.org/2000/svg" xmlns:xlink="http://www.w3.org/1999/xlink" xml:space="preserve" xmlns:serif="http://www.serif.com/" style="fill-rule:evenodd;clip-rule:evenodd;stroke-linejoin:round;stroke-miterlimit:2;">
    <g id="magnifier" transform="matrix(1,0,0,1,-14,-12)">
        <rect x="14" y="12" width="62" height="68" style="fill:none;"/>
        <g>
            <g>
                <path d="M60.364,40.904C60.794,35.975 59.284,31.164 56.095,27.374C52.574,23.164 47.395,20.754 41.895,20.754C37.555,20.754 33.324,22.294 29.994,25.095C22.164,31.664 21.145,43.374 27.704,51.204C31.234,55.404 36.414,57.824 41.914,57.824C46.254,57.824 50.484,56.284 53.814,53.484C57.604,50.305 59.935,45.834 60.364,40.904ZM61.904,22.504C70.544,32.794 69.944,47.805 60.754,57.364L63.124,58.254L73.805,70.984C74.074,71.314 74.464,72.034 73.935,73.174C73.185,74.784 70.704,76.824 68.975,76.824C68.404,76.824 67.914,76.604 67.574,76.204L56.904,63.484L56.424,60.994C52.135,63.885 47.145,65.404 41.914,65.404C34.164,65.404 26.874,62.004 21.904,56.074C12.645,45.044 14.084,28.534 25.114,19.284C29.814,15.345 35.774,13.174 41.895,13.174C49.635,13.174 56.935,16.574 61.904,22.504Z" style="fill-rule:nonzero;"/>
            </g>
        </g>
    </g>
</svg>
